<?xml version="1.0" encoding="UTF-8"?>
<svg xmlns="http://www.w3.org/2000/svg" viewBox="0 0 512 512" role="img" aria-label="Custom IR">
  <title>Custom IR</title>
  <!-- broadcast arcs -->
  <g fill="none" stroke="#FF9126" stroke-linecap="round" stroke-width="22">
    <path d="M256 80 A 60 60 0 0 1 316 140" />
    <path d="M256 50 A 90 90 0 0 1 346 140" />
    <path d="M256 20 A 120 120 0 0 1 376 140" />
  </g>
  <g fill="none" stroke="#FF9126" stroke-linecap="round" stroke-width="22" transform="translate(512 0) scale(-1 1)">
    <path d="M256 80 A 60 60 0 0 1 316 140" />
    <path d="M256 50 A 90 90 0 0 1 346 140" />
    <path d="M256 20 A 120 120 0 0 1 376 140" />
  </g>
  <!-- IR LED dot -->
  <circle cx="256" cy="160" r="22" fill="#FF9126"/>
  <!-- remote body -->
  <rect x="160" y="180" width="192" height="312" rx="36" ry="36" fill="#26263C"/>
  <!-- screen / power region -->
  <rect x="186" y="206" width="140" height="44" rx="10" ry="10" fill="#F5F5FA" opacity="0.92"/>
  <circle cx="316" cy="228" r="10" fill="#FF9126"/>
  <!-- D-pad ring -->
  <circle cx="256" cy="312" r="50" fill="#0F0F1A" stroke="#F5F5FA" stroke-width="4"/>
  <circle cx="256" cy="312" r="20" fill="#FF9126"/>
  <!-- bottom button grid -->
  <g fill="#F5F5FA">
    <rect x="190" y="394" width="48" height="32" rx="8"/>
    <rect x="274" y="394" width="48" height="32" rx="8"/>
    <rect x="190" y="438" width="48" height="32" rx="8"/>
    <rect x="274" y="438" width="48" height="32" rx="8"/>
  </g>
  <!-- accent dots on D-pad arms -->
  <g fill="#F5F5FA">
    <circle cx="256" cy="276" r="4"/>
    <circle cx="256" cy="348" r="4"/>
    <circle cx="220" cy="312" r="4"/>
    <circle cx="292" cy="312" r="4"/>
  </g>
</svg>
